<svg width="40" height="40" viewBox="0 0 40 40" fill="none" xmlns="http://www.w3.org/2000/svg">
<g clip-path="url(#clip0_81_127)">
<path d="M12.565 37.5C27.66 37.5 35.9175 24.9925 35.9175 14.165C35.9208 13.8134 35.9158 13.4617 35.9025 13.11C37.5096 11.9456 38.897 10.5049 40 8.85502C38.4978 9.5157 36.9066 9.95203 35.2775 10.15C36.994 9.12429 38.2795 7.51005 38.895 5.60752C37.2832 6.56433 35.518 7.23505 33.6775 7.59002C32.4405 6.27258 30.8035 5.39982 29.0202 5.10692C27.2369 4.81402 25.4068 5.11733 23.8133 5.96987C22.2199 6.82241 20.952 8.1766 20.2061 9.82267C19.4602 11.4688 19.2779 13.3149 19.6875 15.075C16.4242 14.9122 13.2316 14.0648 10.3171 12.5879C7.40253 11.1111 4.83118 9.03772 2.77 6.50252C1.72395 8.31038 1.40488 10.4485 1.87752 12.483C2.35016 14.5175 3.57911 16.296 5.315 17.4575C4.01352 17.4155 2.74048 17.0659 1.6 16.4375V16.55C1.60318 18.4435 2.25955 20.2778 3.45831 21.7435C4.65707 23.2092 6.3248 24.2163 8.18 24.595C7.47568 24.7892 6.74808 24.8859 6.0175 24.8825C5.5023 24.8879 4.98791 24.8401 4.4825 24.74C5.00598 26.3708 6.02694 27.7967 7.40209 28.8176C8.77724 29.8385 10.4375 30.4033 12.15 30.4325C9.24026 32.7149 5.64811 33.9537 1.95 33.95C1.29825 33.9549 0.646865 33.9173 0 33.8375C3.75355 36.2312 8.11316 37.502 12.565 37.5Z" fill="#F5F5F5"/>
</g>
<defs>
<clipPath id="clip0_81_127">
<rect width="40" height="40" fill="white"/>
</clipPath>
</defs>
</svg>
