<svg width="28" height="25" viewBox="0 0 28 25" fill="none" xmlns="http://www.w3.org/2000/svg">
<path d="M26.156 4.55125H4.82848L4.51223 1.02C4.48724 0.741262 4.35881 0.481977 4.15221 0.293197C3.94562 0.104417 3.67583 -0.000180473 3.39598 2.33756e-07H1.12098C0.823934 2.33756e-07 0.539058 0.118 0.329017 0.328041C0.118976 0.538081 0.000976563 0.822958 0.000976562 1.12C0.000976563 1.41704 0.118976 1.70192 0.329017 1.91196C0.539058 2.122 0.823934 2.24 1.12098 2.24H2.37098L3.65973 16.5938C3.75098 17.6287 4.30973 18.7512 5.27348 19.5138C3.53723 21.7313 5.12348 25 7.94848 25C10.2922 25 11.9447 22.6625 11.141 20.4475H17.2722C16.4697 22.66 18.1185 25 20.466 25C21.3664 24.999 22.2297 24.6409 22.8664 24.0042C23.5031 23.3675 23.8612 22.5042 23.8622 21.6038C23.8612 20.7033 23.5031 19.84 22.8664 19.2033C22.2297 18.5666 21.3664 18.2085 20.466 18.2075H7.95598C7.10473 18.2075 6.36348 17.695 6.04348 16.9463L23.9447 15.8938C24.1829 15.8798 24.4104 15.7903 24.5941 15.638C24.7778 15.4858 24.9081 15.2789 24.966 15.0475L27.2422 5.94375C27.2834 5.77851 27.2864 5.60606 27.2511 5.43948C27.2157 5.27291 27.1428 5.11658 27.038 4.98236C26.9332 4.84815 26.7991 4.73957 26.6461 4.66487C26.4931 4.59018 26.3263 4.55132 26.156 4.55125ZM7.94723 22.76C7.64987 22.7462 7.36927 22.6183 7.16373 22.403C6.95819 22.1877 6.84351 21.9014 6.84351 21.6038C6.84351 21.3061 6.95819 21.0198 7.16373 20.8045C7.36927 20.5892 7.64987 20.4613 7.94723 20.4475C8.24458 20.4613 8.52518 20.5892 8.73072 20.8045C8.93626 21.0198 9.05095 21.3061 9.05095 21.6038C9.05095 21.9014 8.93626 22.1877 8.73072 22.403C8.52518 22.6183 8.24458 22.7462 7.94723 22.76ZM20.466 22.76C20.1686 22.7462 19.888 22.6183 19.6825 22.403C19.4769 22.1877 19.3623 21.9014 19.3623 21.6038C19.3623 21.3061 19.4769 21.0198 19.6825 20.8045C19.888 20.5892 20.1686 20.4613 20.466 20.4475C20.7633 20.4613 21.0439 20.5892 21.2495 20.8045C21.455 21.0198 21.5697 21.3061 21.5697 21.6038C21.5697 21.9014 21.455 22.1877 21.2495 22.403C21.0439 22.6183 20.7633 22.7462 20.466 22.76ZM22.9922 13.7063L5.74223 14.7188L5.02973 6.7925H24.721L22.9922 13.705V13.7063Z" fill="#5A5BAA"/>
<defs>
</defs>
</svg>
