<svg width="250" height="38" viewBox="0 0 250 38" fill="none" xmlns="http://www.w3.org/2000/svg">
<path d="M245.414 24.848C246.235 25.4069 246.646 26.311 246.646 27.5603C246.646 28.7767 246.334 29.7795 245.709 30.5685C245.085 31.3576 244.263 32.0151 243.244 32.5411C241.14 33.6261 238.953 34.1685 236.685 34.1685C234.416 34.1685 232.608 33.9219 231.26 33.4288C229.945 32.9356 228.844 32.2288 227.956 31.3082C226.214 29.5658 225.342 27.1 225.342 23.911C225.342 18.9466 226.69 14.952 229.386 11.9274C232.279 8.67257 236.241 7.04517 241.271 7.04517C244.394 7.04517 246.729 7.7027 248.274 9.01778C249.425 10.0041 250 11.3027 250 12.9137C250 18.7 245.003 21.5931 235.008 21.5931C234.877 22.4479 234.811 23.237 234.811 23.9603C234.811 25.4726 235.14 26.5247 235.797 27.1164C236.488 27.6754 237.457 27.9548 238.707 27.9548C239.956 27.9548 241.238 27.6754 242.553 27.1164C243.901 26.5247 244.855 25.7685 245.414 24.848ZM235.353 19.4726C237.688 19.4726 239.529 18.7493 240.877 17.3027C242.225 15.9219 242.898 14.1301 242.898 11.9274C242.898 11.1712 242.751 10.5959 242.455 10.2013C242.192 9.77394 241.781 9.56024 241.222 9.56024C240.663 9.56024 240.137 9.67531 239.644 9.90545C239.183 10.1027 238.707 10.563 238.214 11.2863C236.997 12.9301 236.044 15.6589 235.353 19.4726Z" fill="#F5F5F5"/>
<path d="M225.343 17.6125C225.343 17.6125 220.059 33.4637 213.004 34.1577H205.959C197.162 33.4637 193.159 16.533 193.64 17.6125C204.29 21.279 214.873 21.1813 225.343 17.6125Z" fill="#F5F5F5"/>
<path d="M167.629 31.7028C166.873 30.848 166.314 29.7466 165.953 28.3986C165.624 27.0507 165.459 25.2754 165.459 23.0726C165.459 20.8699 165.838 18.7657 166.594 16.7603C167.35 14.7548 168.418 13.0287 169.799 11.5822C172.627 8.5575 176.375 7.04517 181.043 7.04517C182.72 7.04517 184.166 7.32462 185.383 7.88353L193.816 7.04517L190.166 26.2781C190.068 26.6726 190.018 27.2315 190.018 27.9548C190.018 28.6781 190.232 29.2699 190.66 29.7302C191.12 30.1904 191.679 30.4534 192.336 30.5192C192.007 31.637 191.235 32.5247 190.018 33.1822C188.835 33.8398 187.569 34.1685 186.221 34.1685C184.873 34.1685 183.739 33.9055 182.818 33.3795C181.931 32.8863 181.355 32.2124 181.092 31.3576C180.566 32.1795 179.744 32.8535 178.627 33.3795C177.509 33.9055 176.194 34.1685 174.681 34.1685C173.202 34.1685 171.854 33.9713 170.638 33.5767C169.421 33.1822 168.418 32.5576 167.629 31.7028ZM178.035 11.6808C177.673 12.2726 177.328 13.0781 176.999 14.0972C176.67 15.0835 176.227 16.9246 175.668 19.6205C175.142 22.2836 174.879 24.5685 174.879 26.4754C174.879 28.3822 175.027 29.6151 175.323 30.174C175.618 30.7329 176.029 31.0124 176.555 31.0124C177.607 31.0124 178.512 30.5192 179.268 29.5329C180.057 28.5137 180.599 27.1165 180.895 25.3411L183.509 10.8918C182.818 10.3 182.062 10.0041 181.24 10.0041C180.451 10.0041 179.81 10.1356 179.317 10.3986C178.857 10.6616 178.429 11.089 178.035 11.6808Z" fill="#F5F5F5"/>
<path d="M157.421 19.3247C158.605 17.2205 159.196 15.1 159.196 12.963C159.196 11.5493 158.687 10.8424 157.668 10.8424C156.879 10.8424 156.073 11.5164 155.251 12.8644C154.396 14.2123 153.837 15.7575 153.574 17.5L151.01 33.1822L140.802 34.1685L145.832 8.03147L153.969 7.04517L153.081 12.026C154.692 8.70544 157.306 7.04517 160.922 7.04517C162.829 7.04517 164.292 7.53832 165.311 8.52462C166.363 9.51093 166.889 11.0233 166.889 13.0616C166.889 15.0671 166.216 16.7109 164.868 17.9931C163.553 19.2753 161.761 19.9164 159.492 19.9164C158.506 19.9164 157.815 19.7192 157.421 19.3247Z" fill="#F5F5F5"/>
<path d="M137.773 23.3261C138.628 23.9507 139.055 24.9371 139.055 26.285C139.055 27.6001 138.759 28.7343 138.167 29.6877C137.608 30.6083 136.77 31.4302 135.652 32.1535C133.252 33.6987 129.948 34.4713 125.74 34.4713C121.565 34.4713 118.326 33.3864 116.025 31.2165C113.756 29.0138 112.622 25.9727 112.622 22.0932C112.622 16.6028 114.052 11.7699 116.912 7.59454C119.082 4.50412 122.107 2.30138 125.986 0.986303C127.992 0.328768 129.981 0 131.954 0C133.926 0 135.521 0.131506 136.737 0.394519C137.954 0.657534 139.022 1.05206 139.943 1.57809C141.948 2.72877 142.951 4.22467 142.951 6.06577C142.951 7.74248 142.162 9.2055 140.584 10.4548C139.137 11.5726 137.822 12.1315 136.639 12.1315C135.455 12.1315 134.617 12.0493 134.124 11.885C134.255 10.7014 134.321 9.73153 134.321 8.97536C134.321 8.18632 134.304 7.51235 134.271 6.95344C134.239 6.39453 134.14 5.85207 133.976 5.32604C133.647 4.1096 132.973 3.50138 131.954 3.50138C130.967 3.50138 129.965 3.97809 128.945 4.93152C127.959 5.85207 127.039 7.10139 126.184 8.67947C124.244 12.263 123.274 16.1754 123.274 20.4165C123.274 22.4549 123.849 24.0658 125 25.2494C126.151 26.4001 127.959 26.9754 130.425 26.9754C132.266 26.9754 134.058 26.3672 135.8 25.1507C136.556 24.6247 137.214 24.0165 137.773 23.3261Z" fill="#F5F5F5"/>
<path d="M89.6343 6.90413C90.0946 6.11508 90.3247 5.29316 90.3247 4.43837C90.3247 2.92603 89.8644 2.16987 88.9439 2.16987C87.5302 2.16987 86.5274 3.61645 85.9356 6.50961L85.1959 10.3562H89.6836L89.3877 12.5754H84.7521L80.3137 35.5069L70.3521 36.4932L75.0863 12.5754H71.5849L72.0288 10.3562H75.4808L76.5164 6.46029C77.1082 4.06028 78.6699 2.30137 81.2014 1.18356C83.0425 0.394522 85.5082 0 88.5987 0C91.6891 0 93.9247 0.394522 95.3055 1.18356C96.6864 1.97261 97.3768 2.89316 97.3768 3.94521C97.3768 4.99727 96.9658 5.85207 96.1439 6.50961C95.322 7.16714 94.4507 7.49591 93.5302 7.49591C91.722 7.49591 90.4233 7.29865 89.6343 6.90413Z" fill="#F5F5F5"/>
<path d="M63.3066 3.99453C63.3066 2.71234 63.8327 1.72603 64.8847 1.03562C65.9697 0.345206 67.2847 0 68.8299 0C70.3751 0 71.608 0.345206 72.5286 1.03562C73.482 1.72603 73.9587 2.71234 73.9587 3.99453C73.9587 5.27673 73.4327 6.24659 72.3806 6.90413C71.3615 7.56166 70.0793 7.89043 68.534 7.89043C66.9888 7.89043 65.7231 7.56166 64.7368 6.90413C63.7833 6.24659 63.3066 5.27673 63.3066 3.99453Z" fill="#F5F5F5"/>
<path d="M91.4868 29.117C91.4868 28.2294 91.717 26.6677 92.1772 24.4321L94.7909 11.117H91.8813L92.0786 9.63754C96.0238 8.45398 99.9033 6.41562 103.717 3.52246H106.084L104.901 8.89782H108.747L108.303 11.117H104.506L101.991 24.4321C101.564 26.4705 101.35 27.8349 101.35 28.5253C101.35 30.1034 102.04 31.0568 103.421 31.3855C103.092 32.5034 102.336 33.391 101.153 34.0486C99.969 34.7061 98.5389 35.0349 96.8622 35.0349C95.1855 35.0349 93.8704 34.5088 92.917 33.4568C91.9635 32.4047 91.4868 30.9581 91.4868 29.117Z" fill="#F5F5F5"/>
<path d="M64.6734 28.469C62.5035 31.4608 60.3666 33.7458 58.2624 35.3239C56.1912 36.9019 54.0707 37.691 51.9008 37.691C49.7638 37.691 48.3172 37.4773 47.561 37.0499V26.2005C45.6871 31.1978 43.0734 34.6663 39.7199 36.6061C38.5035 37.3293 37.3199 37.691 36.1692 37.691C33.9665 37.691 32.3884 37.4773 31.435 37.0499C31.2048 29.5211 30.9911 24.7211 30.7939 22.6498C30.5966 20.5457 30.4158 18.8526 30.2514 17.5704C29.9226 15.006 29.1994 13.1978 28.0815 12.1457C29.4952 11.0937 31.1884 10.5676 33.161 10.5676C36.9747 10.5676 39.1446 12.9348 39.6706 17.669C39.8021 18.7868 39.8679 19.9375 39.8679 21.1211C39.8679 22.8964 39.6706 26.8745 39.2761 33.0554C40.0651 32.6937 40.8706 31.8718 41.6925 30.5896C42.5473 29.2745 43.3199 27.7293 44.0104 25.954C45.5556 21.8444 46.3282 18.0142 46.3282 14.4635C46.3282 13.9046 46.246 13.3293 46.0816 12.7375C45.9501 12.1457 45.8021 11.7676 45.6378 11.6032C46.7884 10.9128 48.235 10.5676 49.9775 10.5676C51.7528 10.5676 53.0515 11.1758 53.8734 12.3923C54.7282 13.5759 55.2707 15.269 55.5008 17.4718C55.7638 20.2663 55.8953 22.5019 55.8953 24.1786C55.8953 26.5129 55.7802 29.406 55.5501 32.8581C57.1939 31.6745 58.6898 29.143 60.0378 25.2636C61.3857 21.3841 62.0597 18.0635 62.0597 15.3019C62.0597 14.0854 61.9611 13.1156 61.7638 12.3923C62.8488 11.1758 64.3282 10.5676 66.2022 10.5676C67.3529 10.5676 68.3392 10.88 69.1611 11.5046C70.0159 12.1293 70.4433 13.0334 70.4433 14.217C70.4433 15.3676 70.2625 16.5676 69.9008 17.817C69.5721 19.0663 69.1282 20.332 68.5693 21.6142C67.4844 24.1786 66.1857 26.4636 64.6734 28.469Z" fill="#F5F5F5"/>
<path d="M19.9727 12.4414C20.4658 11.4551 20.7124 10.5017 20.7124 9.5811C20.7124 8.66055 20.6631 7.9537 20.5644 7.46055C20.4658 6.93452 20.3014 6.47425 20.0713 6.07973C19.5781 5.22493 18.8384 4.79753 17.8521 4.79753C16.6357 4.79753 15.5343 5.24137 14.548 6.12904C13.4959 7.04959 12.9699 8.23316 12.9699 9.67974C12.9699 10.6003 13.2822 11.4222 13.9069 12.1455C14.5644 12.8359 15.3863 13.5099 16.3726 14.1674C17.3589 14.825 18.411 15.4825 19.5288 16.14C20.6466 16.7976 21.6987 17.5209 22.685 18.3099C24.9535 20.1181 26.0877 22.2387 26.0877 24.6716C26.0877 26.3154 25.6439 27.8442 24.7562 29.2579C23.9014 30.6387 22.7507 31.8387 21.3042 32.8579C18.148 35.0935 14.4822 36.2113 10.3069 36.2113C6.92057 36.2113 4.35618 35.6688 2.61371 34.5839C0.871235 33.4661 0 32.0688 0 30.3921C0 27.4003 1.16713 25.5263 3.50138 24.7702C4.15892 24.54 4.98083 24.425 5.96714 24.425C6.98632 24.425 8.07125 24.6387 9.22194 25.0661C8.69591 26.414 8.4329 27.6962 8.4329 28.9127C8.4329 31.5428 9.36989 32.8579 11.2439 32.8579C12.4603 32.8579 13.5617 32.414 14.548 31.5264C15.5672 30.6387 16.0768 29.7017 16.0768 28.7154C16.0768 27.6962 15.748 26.825 15.0905 26.1017C14.4658 25.3784 13.6767 24.7373 12.7233 24.1784C11.7699 23.5866 10.7343 23.0113 9.61646 22.4524C8.53153 21.8935 7.51235 21.2195 6.55892 20.4304C4.3233 18.6222 3.20549 16.2715 3.20549 13.3784C3.20549 11.5044 3.66576 9.84412 4.58631 8.39754C5.50686 6.91808 6.70687 5.6852 8.18632 4.6989C11.1452 2.69341 14.4329 1.69067 18.0494 1.69067C21.6987 1.69067 24.3946 2.23314 26.1371 3.31807C27.9124 4.40301 28.8001 5.86603 28.8001 7.70713C28.8001 9.31809 28.1754 10.6332 26.9261 11.6523C25.8412 12.5071 24.6412 12.9345 23.3261 12.9345C22.011 12.9345 20.8932 12.7702 19.9727 12.4414Z" fill="#F5F5F5"/>
<path d="M210.286 17.7544L213.972 7.76425L216.298 8.96544L210.286 17.7544Z" fill="#F5F5F5"/>
<path d="M209.372 19.1595L220.833 7.04495L224.118 11.3705L209.372 19.1595Z" fill="#F5F5F5"/>
</svg>
