<svg width="250" height="38" fill="none" xmlns="http://www.w3.org/2000/svg"><path d="M245.414 24.848c.821.5589 1.232 1.463 1.232 2.7123 0 1.2164-.312 2.2192-.937 3.0082-.624.7891-1.446 1.4466-2.465 1.9726-2.104 1.085-4.291 1.6274-6.559 1.6274-2.269 0-4.077-.2466-5.425-.7397-1.315-.4932-2.416-1.2-3.304-2.1206-1.742-1.7424-2.614-4.2082-2.614-7.3972 0-4.9644 1.348-8.959 4.044-11.9836 2.893-3.25483 6.855-4.88223 11.885-4.88223 3.123 0 5.458.65753 7.003 1.97261 1.151.98632 1.726 2.28492 1.726 3.89592 0 5.7863-4.997 8.6794-14.992 8.6794-.131.8548-.197 1.6439-.197 2.3672 0 1.5123.329 2.5644.986 3.1561.691.559 1.66.8384 2.91.8384 1.249 0 2.531-.2794 3.846-.8384 1.348-.5917 2.302-1.3479 2.861-2.2684Zm-10.061-5.3754c2.335 0 4.176-.7233 5.524-2.1699 1.348-1.3808 2.021-3.1726 2.021-5.3753 0-.7562-.147-1.3315-.443-1.7261-.263-.42736-.674-.64106-1.233-.64106s-1.085.11507-1.578.34521c-.461.19725-.937.65755-1.43 1.38085-1.217 1.6438-2.17 4.3726-2.861 8.1863ZM225.343 17.6125s-5.284 15.8512-12.339 16.5452h-7.045c-8.797-.694-12.8-17.6247-12.319-16.5452 10.65 3.6665 21.233 3.5688 31.703 0ZM167.629 31.7028c-.756-.8548-1.315-1.9562-1.676-3.3042-.329-1.3479-.494-3.1232-.494-5.326 0-2.2027.379-4.3069 1.135-6.3123.756-2.0055 1.824-3.7316 3.205-5.1781 2.828-3.0247 6.576-4.53703 11.244-4.53703 1.677 0 3.123.27945 4.34.83836l8.433-.83836-3.65 19.23293c-.098.3945-.148.9534-.148 1.6767s.214 1.3151.642 1.7754c.46.4602 1.019.7232 1.676.789-.329 1.1178-1.101 2.0055-2.318 2.663-1.183.6576-2.449.9863-3.797.9863-1.348 0-2.482-.263-3.403-.789-.887-.4932-1.463-1.1671-1.726-2.0219-.526.8219-1.348 1.4959-2.465 2.0219-1.118.526-2.433.789-3.946.789-1.479 0-2.827-.1972-4.043-.5918-1.217-.3945-2.22-1.0191-3.009-1.8739Zm10.406-20.022c-.362.5918-.707 1.3973-1.036 2.4164-.329.9863-.772 2.8274-1.331 5.5233-.526 2.6631-.789 4.948-.789 6.8549 0 1.9068.148 3.1397.444 3.6986.295.5589.706.8384 1.232.8384 1.052 0 1.957-.4932 2.713-1.4795.789-1.0192 1.331-2.4164 1.627-4.1918l2.614-14.4493c-.691-.5918-1.447-.8877-2.269-.8877-.789 0-1.43.1315-1.923.3945-.46.263-.888.6904-1.282 1.2822ZM157.421 19.3247c1.184-2.1042 1.775-4.2247 1.775-6.3617 0-1.4137-.509-2.1206-1.528-2.1206-.789 0-1.595.674-2.417 2.022-.855 1.3479-1.414 2.8931-1.677 4.6356l-2.564 15.6822-10.208.9863 5.03-26.13703 8.137-.9863-.888 4.98083c1.611-3.32056 4.225-4.98083 7.841-4.98083 1.907 0 3.37.49315 4.389 1.47945 1.052.98631 1.578 2.49868 1.578 4.53698 0 2.0055-.673 3.6493-2.021 4.9315-1.315 1.2822-3.107 1.9233-5.376 1.9233-.986 0-1.677-.1972-2.071-.5917ZM137.773 23.3261c.855.6246 1.282 1.611 1.282 2.9589 0 1.3151-.296 2.4493-.888 3.4027-.559.9206-1.397 1.7425-2.515 2.4658-2.4 1.5452-5.704 2.3178-9.912 2.3178-4.175 0-7.414-1.0849-9.715-3.2548-2.269-2.2027-3.403-5.2438-3.403-9.1233 0-5.4904 1.43-10.3233 4.29-14.49866 2.17-3.09042 5.195-5.29316 9.074-6.608237C127.992.328768 129.981 0 131.954 0c1.972 0 3.567.131506 4.783.394519 1.217.263015 2.285.657541 3.206 1.183571 2.005 1.15068 3.008 2.64658 3.008 4.48768 0 1.67671-.789 3.13973-2.367 4.38903-1.447 1.1178-2.762 1.6767-3.945 1.6767-1.184 0-2.022-.0822-2.515-.2465.131-1.1836.197-2.15347.197-2.90964 0-.78904-.017-1.46301-.05-2.02192-.032-.55891-.131-1.10137-.295-1.6274-.329-1.21644-1.003-1.82466-2.022-1.82466-.987 0-1.989.47671-3.009 1.43014-.986.92055-1.906 2.16987-2.761 3.74795-1.94 3.58353-2.91 7.49593-2.91 11.73703 0 2.0384.575 3.6493 1.726 4.8329 1.151 1.1507 2.959 1.726 5.425 1.726 1.841 0 3.633-.6082 5.375-1.8247.756-.526 1.414-1.1342 1.973-1.8246ZM89.6343 6.90413c.4603-.78905.6904-1.61097.6904-2.46576 0-1.51234-.4603-2.2685-1.3808-2.2685-1.4137 0-2.4165 1.44658-3.0083 4.33974l-.7397 3.84659h4.4877l-.2959 2.2192h-4.6356l-4.4384 22.9315-9.9616.9863 4.7342-23.9178h-3.5014l.4439-2.2192h3.452l1.0356-3.89591c.5918-2.40001 2.1535-4.15892 4.685-5.27673C83.0425.394522 85.5082 0 88.5987 0c3.0904 0 5.326.394522 6.7068 1.18356 1.3809.78905 2.0713 1.7096 2.0713 2.76165 0 1.05206-.411 1.90686-1.2329 2.5644-.8219.65753-1.6932.9863-2.6137.9863-1.8082 0-3.1069-.19726-3.8959-.59178ZM63.3066 3.99453c0-1.28219.5261-2.2685 1.5781-2.95891C65.9697.345206 67.2847 0 68.8299 0s2.7781.345206 3.6987 1.03562c.9534.69041 1.4301 1.67672 1.4301 2.95891 0 1.2822-.526 2.25206-1.5781 2.9096-1.0191.65753-2.3013.9863-3.8466.9863-1.5452 0-2.8109-.32877-3.7972-.9863-.9535-.65754-1.4302-1.6274-1.4302-2.9096Z" fill="#F5F5F5"/><path d="M91.4868 29.117c0-.8876.2302-2.4493.6904-4.6849l2.6137-13.3151h-2.9096l.1973-1.47946c3.9452-1.18356 7.8247-3.22192 11.6384-6.11508h2.367l-1.183 5.37536h3.846l-.444 2.21918h-3.797l-2.515 13.3151c-.427 2.0384-.641 3.4028-.641 4.0932 0 1.5781.69 2.5315 2.071 2.8602-.329 1.1179-1.085 2.0055-2.268 2.6631-1.184.6575-2.6141.9863-4.2908.9863-1.6767 0-2.9918-.5261-3.9452-1.5781-.9535-1.0521-1.4302-2.4987-1.4302-4.3398ZM64.6734 28.469c-2.1699 2.9918-4.3068 5.2768-6.411 6.8549-2.0712 1.578-4.1917 2.3671-6.3616 2.3671-2.137 0-3.5836-.2137-4.3398-.6411V26.2005c-1.8739 4.9973-4.4876 8.4658-7.8411 10.4056-1.2164.7232-2.4 1.0849-3.5507 1.0849-2.2027 0-3.7808-.2137-4.7342-.6411-.2302-7.5288-.4439-12.3288-.6411-14.4001-.1973-2.1041-.3781-3.7972-.5425-5.0794-.3288-2.5644-1.052-4.3726-2.1699-5.4247 1.4137-1.052 3.1069-1.5781 5.0795-1.5781 3.8137 0 5.9836 2.3672 6.5096 7.1014.1315 1.1178.1973 2.2685.1973 3.4521 0 1.7753-.1973 5.7534-.5918 11.9343.789-.3617 1.5945-1.1836 2.4164-2.4658.8548-1.3151 1.6274-2.8603 2.3179-4.6356 1.5452-4.1096 2.3178-7.9398 2.3178-11.4905 0-.5589-.0822-1.1342-.2466-1.726-.1315-.5918-.2795-.9699-.4438-1.1343 1.1506-.6904 2.5972-1.0356 4.3397-1.0356 1.7753 0 3.074.6082 3.8959 1.8247.8548 1.1836 1.3973 2.8767 1.6274 5.0795.263 2.7945.3945 5.0301.3945 6.7068 0 2.3343-.1151 5.2274-.3452 8.6795 1.6438-1.1836 3.1397-3.7151 4.4877-7.5945 1.3479-3.8795 2.0219-7.2001 2.0219-9.9617 0-1.2165-.0986-2.1863-.2959-2.9096 1.085-1.2165 2.5644-1.8247 4.4384-1.8247 1.1507 0 2.137.3124 2.9589.937.8548.6247 1.2822 1.5288 1.2822 2.7124 0 1.1506-.1808 2.3506-.5425 3.6-.3287 1.2493-.7726 2.515-1.3315 3.7972-1.0849 2.5644-2.3836 4.8494-3.8959 6.8548Z" fill="#F5F5F5"/><path d="M19.9727 12.4414c.4931-.9863.7397-1.9397.7397-2.8603 0-.92055-.0493-1.6274-.148-2.12055-.0986-.52603-.263-.9863-.4931-1.38082-.4932-.8548-1.2329-1.2822-2.2192-1.2822-1.2164 0-2.3178.44384-3.3041 1.33151-1.0521.92055-1.5781 2.10412-1.5781 3.5507 0 .92056.3123 1.74246.937 2.46576.6575.6904 1.4794 1.3644 2.4657 2.0219.9863.6576 2.0384 1.3151 3.1562 1.9726 1.1178.6576 2.1699 1.3809 3.1562 2.1699 2.2685 1.8082 3.4027 3.9288 3.4027 6.3617 0 1.6438-.4438 3.1726-1.3315 4.5863-.8548 1.3808-2.0055 2.5808-3.452 3.6-3.1562 2.2356-6.822 3.3534-10.9973 3.3534-3.38633 0-5.95072-.5425-7.69319-1.6274C.871235 33.4661 0 32.0688 0 30.3921c0-2.9918 1.16713-4.8658 3.50138-5.6219.65754-.2302 1.47945-.3452 2.46576-.3452 1.01918 0 2.10411.2137 3.2548.6411-.52603 1.3479-.78904 2.6301-.78904 3.8466 0 2.6301.93699 3.9452 2.811 3.9452 1.2164 0 2.3178-.4439 3.3041-1.3315 1.0192-.8877 1.5288-1.8247 1.5288-2.811 0-1.0192-.3288-1.8904-.9863-2.6137-.6247-.7233-1.4138-1.3644-2.3672-1.9233-.9534-.5918-1.989-1.1671-3.10684-1.726-1.08493-.5589-2.10411-1.2329-3.05754-2.022-2.23562-1.8082-3.35343-4.1589-3.35343-7.052 0-1.874.46027-3.53428 1.38082-4.98086.92055-1.47946 2.12056-2.71234 3.60001-3.69864 2.95888-2.00549 6.24658-3.00823 9.86308-3.00823 3.6493 0 6.3452.54247 8.0877 1.6274 1.7753 1.08494 2.663 2.54796 2.663 4.38906 0 1.61096-.6247 2.92607-1.874 3.94517-1.0849.8548-2.2849 1.2822-3.6 1.2822-1.3151 0-2.4329-.1643-3.3534-.4931ZM210.286 17.7544l3.686-9.99015 2.326 1.20119-6.012 8.78896ZM209.372 19.1595l11.461-12.11455 3.285 4.32555-14.746 7.789Z" fill="#F5F5F5"/></svg>