<svg width="250" height="38" viewBox="0 0 250 38" fill="none" xmlns="http://www.w3.org/2000/svg">
<path d="M245.414 24.8478C246.235 25.4067 246.646 26.3108 246.646 27.5602C246.646 28.7766 246.334 29.7794 245.709 30.5684C245.085 31.3574 244.263 32.015 243.244 32.541C241.14 33.6259 238.953 34.1684 236.685 34.1684C234.416 34.1684 232.608 33.9218 231.26 33.4287C229.945 32.9355 228.844 32.2287 227.956 31.3081C226.214 29.5657 225.342 27.0999 225.342 23.9108C225.342 18.9464 226.69 14.9519 229.386 11.9272C232.279 8.67245 236.241 7.04504 241.271 7.04504C244.394 7.04504 246.729 7.70258 248.274 9.01765C249.425 10.004 250 11.3026 250 12.9136C250 18.6999 245.003 21.593 235.008 21.593C234.877 22.4478 234.811 23.2369 234.811 23.9602C234.811 25.4725 235.14 26.5245 235.797 27.1163C236.488 27.6752 237.457 27.9547 238.707 27.9547C239.956 27.9547 241.238 27.6752 242.553 27.1163C243.901 26.5245 244.855 25.7684 245.414 24.8478ZM235.353 19.4725C237.688 19.4725 239.529 18.7492 240.877 17.3026C242.225 15.9218 242.898 14.13 242.898 11.9272C242.898 11.1711 242.751 10.5957 242.455 10.2012C242.192 9.77382 241.781 9.56012 241.222 9.56012C240.663 9.56012 240.137 9.67519 239.644 9.90533C239.183 10.1026 238.707 10.5629 238.214 11.2862C236.997 12.93 236.044 15.6588 235.353 19.4725Z" fill="#5A5BAA"/>
<path d="M225.343 17.6126C225.343 17.6126 220.059 33.4639 213.004 34.1578H205.959C197.162 33.4639 193.159 16.5331 193.64 17.6126C204.29 21.2791 214.873 21.1814 225.343 17.6126Z" fill="#5A5BAA"/>
<path d="M167.629 31.7026C166.873 30.8478 166.314 29.7465 165.953 28.3985C165.624 27.0506 165.459 25.2752 165.459 23.0725C165.459 20.8697 165.838 18.7656 166.594 16.7601C167.35 14.7547 168.418 13.0286 169.799 11.582C172.627 8.55738 176.375 7.04504 181.043 7.04504C182.72 7.04504 184.166 7.3245 185.383 7.8834L193.816 7.04504L190.166 26.278C190.068 26.6725 190.018 27.2314 190.018 27.9547C190.018 28.678 190.232 29.2698 190.66 29.73C191.12 30.1903 191.679 30.4533 192.336 30.5191C192.007 31.6369 191.235 32.5246 190.018 33.1821C188.835 33.8396 187.569 34.1684 186.221 34.1684C184.873 34.1684 183.739 33.9054 182.818 33.3794C181.931 32.8862 181.355 32.2122 181.092 31.3574C180.566 32.1794 179.744 32.8533 178.627 33.3794C177.509 33.9054 176.194 34.1684 174.681 34.1684C173.202 34.1684 171.854 33.9711 170.638 33.5766C169.421 33.1821 168.418 32.5574 167.629 31.7026ZM178.035 11.6807C177.673 12.2725 177.328 13.0779 176.999 14.0971C176.67 15.0834 176.227 16.9245 175.668 19.6204C175.142 22.2834 174.879 24.5684 174.879 26.4752C174.879 28.3821 175.027 29.615 175.323 30.1739C175.618 30.7328 176.029 31.0122 176.555 31.0122C177.607 31.0122 178.512 30.5191 179.268 29.5328C180.057 28.5136 180.599 27.1163 180.895 25.341L183.509 10.8916C182.818 10.2998 182.062 10.004 181.24 10.004C180.451 10.004 179.81 10.1355 179.317 10.3985C178.857 10.6615 178.429 11.0889 178.035 11.6807Z" fill="#5A5BAA"/>
<path d="M157.421 19.3245C158.605 17.2204 159.196 15.0999 159.196 12.9629C159.196 11.5492 158.687 10.8423 157.668 10.8423C156.879 10.8423 156.073 11.5163 155.251 12.8642C154.396 14.2122 153.837 15.7574 153.574 17.4999L151.01 33.1821L140.802 34.1684L145.832 8.03135L153.969 7.04504L153.081 12.0259C154.692 8.70532 157.306 7.04504 160.922 7.04504C162.829 7.04504 164.292 7.5382 165.311 8.5245C166.363 9.5108 166.889 11.0231 166.889 13.0615C166.889 15.067 166.216 16.7108 164.868 17.993C163.553 19.2752 161.761 19.9163 159.492 19.9163C158.506 19.9163 157.815 19.719 157.421 19.3245Z" fill="#5A5BAA"/>
<path d="M137.773 23.3261C138.628 23.9507 139.055 24.9371 139.055 26.285C139.055 27.6001 138.759 28.7343 138.167 29.6877C137.608 30.6083 136.77 31.4302 135.652 32.1535C133.252 33.6987 129.948 34.4713 125.74 34.4713C121.565 34.4713 118.326 33.3864 116.025 31.2165C113.756 29.0138 112.622 25.9727 112.622 22.0932C112.622 16.6028 114.052 11.7699 116.912 7.59454C119.082 4.50412 122.107 2.30138 125.986 0.986303C127.992 0.328768 129.981 0 131.954 0C133.926 0 135.521 0.131506 136.737 0.394519C137.954 0.657534 139.022 1.05206 139.943 1.57809C141.948 2.72877 142.951 4.22467 142.951 6.06577C142.951 7.74248 142.162 9.2055 140.584 10.4548C139.137 11.5726 137.822 12.1315 136.639 12.1315C135.455 12.1315 134.617 12.0493 134.124 11.885C134.255 10.7014 134.321 9.73153 134.321 8.97536C134.321 8.18632 134.304 7.51235 134.271 6.95344C134.239 6.39453 134.14 5.85207 133.976 5.32604C133.647 4.1096 132.973 3.50138 131.954 3.50138C130.967 3.50138 129.965 3.97809 128.945 4.93152C127.959 5.85207 127.039 7.10139 126.184 8.67947C124.244 12.263 123.274 16.1754 123.274 20.4165C123.274 22.4549 123.849 24.0658 125 25.2494C126.151 26.4001 127.959 26.9754 130.425 26.9754C132.266 26.9754 134.058 26.3672 135.8 25.1507C136.556 24.6247 137.214 24.0165 137.773 23.3261Z" fill="#5A5BAA"/>
<path d="M89.6343 6.90413C90.0946 6.11508 90.3247 5.29316 90.3247 4.43837C90.3247 2.92603 89.8644 2.16987 88.9439 2.16987C87.5302 2.16987 86.5274 3.61645 85.9356 6.50961L85.1959 10.3562H89.6836L89.3877 12.5754H84.7521L80.3137 35.5069L70.3521 36.4932L75.0863 12.5754H71.5849L72.0288 10.3562H75.4808L76.5164 6.46029C77.1082 4.06028 78.6699 2.30137 81.2014 1.18356C83.0425 0.394522 85.5082 0 88.5987 0C91.6891 0 93.9247 0.394522 95.3055 1.18356C96.6864 1.97261 97.3768 2.89316 97.3768 3.94521C97.3768 4.99727 96.9658 5.85207 96.1439 6.50961C95.322 7.16714 94.4507 7.49591 93.5302 7.49591C91.722 7.49591 90.4233 7.29865 89.6343 6.90413Z" fill="#5A5BAA"/>
<path d="M63.3066 3.99453C63.3066 2.71234 63.8327 1.72603 64.8847 1.03562C65.9697 0.345206 67.2847 0 68.8299 0C70.3751 0 71.608 0.345206 72.5286 1.03562C73.482 1.72603 73.9587 2.71234 73.9587 3.99453C73.9587 5.27673 73.4327 6.24659 72.3806 6.90413C71.3615 7.56166 70.0793 7.89043 68.534 7.89043C66.9888 7.89043 65.7231 7.56166 64.7368 6.90413C63.7833 6.24659 63.3066 5.27673 63.3066 3.99453Z" fill="#5A5BAA"/>
<path d="M91.4868 29.1171C91.4868 28.2294 91.717 26.6678 92.1772 24.4321L94.7909 11.117H91.8813L92.0786 9.63758C96.0238 8.45401 99.9033 6.41565 103.717 3.52249H106.084L104.901 8.89785H108.747L108.303 11.117H104.506L101.991 24.4321C101.564 26.4705 101.35 27.8349 101.35 28.5253C101.35 30.1034 102.04 31.0568 103.421 31.3856C103.092 32.5034 102.336 33.3911 101.153 34.0486C99.969 34.7061 98.5389 35.0349 96.8622 35.0349C95.1855 35.0349 93.8704 34.5089 92.917 33.4568C91.9635 32.4048 91.4868 30.9582 91.4868 29.1171Z" fill="#5A5BAA"/>
<path d="M64.6734 28.4689C62.5035 31.4607 60.3666 33.7456 58.2624 35.3237C56.1912 36.9018 54.0707 37.6909 51.9008 37.6909C49.7638 37.6909 48.3172 37.4772 47.561 37.0498V26.2004C45.6871 31.1977 43.0734 34.6662 39.7199 36.6059C38.5035 37.3292 37.3199 37.6909 36.1692 37.6909C33.9665 37.6909 32.3884 37.4772 31.435 37.0498C31.2048 29.521 30.9911 24.721 30.7939 22.6497C30.5966 20.5456 30.4158 18.8525 30.2514 17.5703C29.9226 15.0059 29.1994 13.1977 28.0815 12.1456C29.4952 11.0935 31.1884 10.5675 33.161 10.5675C36.9747 10.5675 39.1446 12.9346 39.6706 17.6689C39.8021 18.7867 39.8679 19.9374 39.8679 21.121C39.8679 22.8963 39.6706 26.8744 39.2761 33.0552C40.0651 32.6936 40.8706 31.8717 41.6925 30.5895C42.5473 29.2744 43.3199 27.7292 44.0104 25.9538C45.5556 21.8442 46.3282 18.0141 46.3282 14.4634C46.3282 13.9045 46.246 13.3292 46.0816 12.7374C45.9501 12.1456 45.8021 11.7675 45.6378 11.6031C46.7884 10.9127 48.235 10.5675 49.9775 10.5675C51.7528 10.5675 53.0515 11.1757 53.8734 12.3922C54.7282 13.5757 55.2707 15.2689 55.5008 17.4716C55.7638 20.2662 55.8953 22.5018 55.8953 24.1785C55.8953 26.5128 55.7802 29.4059 55.5501 32.858C57.1939 31.6744 58.6898 29.1429 60.0378 25.2634C61.3857 21.384 62.0597 18.0634 62.0597 15.3018C62.0597 14.0853 61.9611 13.1155 61.7638 12.3922C62.8488 11.1757 64.3282 10.5675 66.2022 10.5675C67.3529 10.5675 68.3392 10.8798 69.1611 11.5045C70.0159 12.1292 70.4433 13.0333 70.4433 14.2168C70.4433 15.3675 70.2625 16.5675 69.9008 17.8168C69.5721 19.0662 69.1282 20.3319 68.5693 21.6141C67.4844 24.1785 66.1857 26.4634 64.6734 28.4689Z" fill="url(#paint0_linear_127_235)"/>
<path d="M19.9727 12.4414C20.4658 11.4551 20.7124 10.5017 20.7124 9.58116C20.7124 8.66061 20.6631 7.95376 20.5644 7.46061C20.4658 6.93458 20.3014 6.47431 20.0713 6.07979C19.5781 5.22499 18.8384 4.79759 17.8521 4.79759C16.6357 4.79759 15.5343 5.24143 14.548 6.1291C13.4959 7.04965 12.9699 8.23322 12.9699 9.6798C12.9699 10.6003 13.2822 11.4223 13.9069 12.1456C14.5644 12.836 15.3863 13.5099 16.3726 14.1675C17.3589 14.825 18.411 15.4825 19.5288 16.1401C20.6466 16.7976 21.6987 17.5209 22.685 18.31C24.9535 20.1182 26.0877 22.2387 26.0877 24.6716C26.0877 26.3155 25.6439 27.8442 24.7562 29.2579C23.9014 30.6388 22.7507 31.8388 21.3042 32.8579C18.148 35.0936 14.4822 36.2114 10.3069 36.2114C6.92057 36.2114 4.35618 35.6689 2.61371 34.584C0.871235 33.4662 0 32.0689 0 30.3922C0 27.4004 1.16713 25.5264 3.50138 24.7702C4.15892 24.5401 4.98083 24.425 5.96714 24.425C6.98632 24.425 8.07125 24.6387 9.22194 25.0661C8.69591 26.4141 8.4329 27.6963 8.4329 28.9127C8.4329 31.5429 9.36989 32.8579 11.2439 32.8579C12.4603 32.8579 13.5617 32.4141 14.548 31.5264C15.5672 30.6388 16.0768 29.7018 16.0768 28.7155C16.0768 27.6963 15.748 26.825 15.0905 26.1018C14.4658 25.3785 13.6767 24.7374 12.7233 24.1785C11.7699 23.5867 10.7343 23.0113 9.61646 22.4524C8.53153 21.8935 7.51235 21.2196 6.55892 20.4305C4.3233 18.6223 3.20549 16.2716 3.20549 13.3784C3.20549 11.5045 3.66576 9.84418 4.58631 8.3976C5.50686 6.91814 6.70687 5.68526 8.18632 4.69896C11.1452 2.69348 14.4329 1.69073 18.0494 1.69073C21.6987 1.69073 24.3946 2.2332 26.1371 3.31814C27.9124 4.40307 28.8001 5.86609 28.8001 7.70719C28.8001 9.31815 28.1754 10.6332 26.9261 11.6524C25.8412 12.5072 24.6412 12.9346 23.3261 12.9346C22.011 12.9346 20.8932 12.7702 19.9727 12.4414Z" fill="#CE3030"/>
<path d="M210.286 17.7544L213.972 7.76422L216.298 8.96541L210.286 17.7544Z" fill="#5A5BAA"/>
<path d="M209.372 19.1596L220.833 7.04501L224.118 11.3706L209.372 19.1596Z" fill="#5A5BAA"/>
<defs>
<linearGradient id="paint0_linear_127_235" x1="49.2166" y1="21.135" x2="66.8292" y2="21.135" gradientUnits="userSpaceOnUse">
<stop stop-color="#CE3030"/>
<stop offset="1" stop-color="#5A5BAA"/>
</linearGradient>
</defs>
</svg>
